# xmcd CD database file generated by Grip 2.91
# 
# Track frame offsets:
#       150
#       14864
#       29791
#       42913
#       58811
#       72909
#       81213
#       93624
#       104635
#       115373
#       129483
#       144775
#       157357
#       168983
#       179530
#       190395
#       199772
#       215854
#       226900
#       240631
#       254140
#       266126
#       281813
#       294966
#       307521
#       321706
#       335359
#       347756
# 
# Disc length: 4805 seconds
# 
# Revision: 3
# Processed by: cddbd v1.4b41PL1 Copyright (c) Steve Scherf et al.
# Submitted via: Grip 2.91
# 
DISCID=c812c31c
DTITLE=Fausto Papetty - MTV Instrumental history 2000
DYEAR=1900
DGENRE=
TTITLE0=Theme from paradise
TTITLE1=Emanuelle
TTITLE2=Love story
TTITLE3=Feelings
TTITLE4=Windmills of your mind
TTITLE5=Hello dolly
TTITLE6=Love me tender
TTITLE7=The shadow of your smile
TTITLE8=Summertime
TTITLE9=I just called to say i love you
TTITLE10=Blue eyes
TTITLE11=Run to me
TTITLE12=Strangers in the night
TTITLE13=Blue mood
TTITLE14=In a sentimental mood
TTITLE15=Laura
TTITLE16=Smooth operator
TTITLE17=Smoke gets in your eyes
TTITLE18=Un hommeet une femme
TTITLE19=Prima visione
TTITLE20=Unchained molody
TTITLE21=Revelations
TTITLE22=Sleepy shores
TTITLE23=Misty
TTITLE24=Yestrday
TTITLE25=The way we were
TTITLE26=Billitis
TTITLE27=Peer gynt
EXTD=
EXTT0=
EXTT1=
EXTT2=
EXTT3=
EXTT4=
EXTT5=
EXTT6=
EXTT7=
EXTT8=
EXTT9=
EXTT10=
EXTT11=
EXTT12=
EXTT13=
EXTT14=
EXTT15=
EXTT16=
EXTT17=
EXTT18=
EXTT19=
EXTT20=
EXTT21=
EXTT22=
EXTT23=
EXTT24=
EXTT25=
EXTT26=
EXTT27=
PLAYORDER=
